<?xml version="1.0" standalone="no"?>
<!DOCTYPE svg PUBLIC "-//W3C//DTD SVG 20010904//EN"
 "http://www.w3.org/TR/2001/REC-SVG-20010904/DTD/svg10.dtd">
<svg version="1.0" xmlns="http://www.w3.org/2000/svg"
 width="16.000000pt" height="16.000000pt" viewBox="0 0 16.000000 16.000000"
 preserveAspectRatio="xMidYMid meet">
<metadata>
Created by potrace 1.11, written by Peter Selinger 2001-2013
</metadata>
<g transform="translate(0.000000,16.000000) scale(0.001260,-0.001260)"
fill="#000000" stroke="none">
<path d="M7458 12695 c-2 -1 -41 -6 -88 -9 -47 -4 -92 -9 -100 -11 -8 -2 -35
-6 -60 -9 -25 -3 -56 -8 -70 -11 -14 -3 -41 -8 -60 -11 -19 -3 -63 -12 -96
-19 -34 -8 -73 -16 -85 -19 -67 -13 -312 -89 -374 -115 -11 -5 -53 -23 -93
-40 l-73 -31 -82 24 c-81 25 -193 54 -232 62 -11 2 -31 6 -45 8 -14 3 -42 8
-62 11 -47 6 -105 16 -127 20 -131 25 -586 25 -711 0 -14 -3 -43 -8 -64 -10
-21 -3 -42 -7 -45 -9 -4 -3 -26 -7 -51 -11 -25 -4 -47 -8 -51 -10 -3 -2 -20
-7 -38 -10 -50 -9 -287 -89 -380 -129 -104 -45 -250 -119 -319 -163 -29 -18
-55 -33 -57 -33 -6 0 -177 -112 -185 -121 -3 -3 -27 -21 -54 -40 -28 -18 -57
-41 -66 -49 -9 -8 -34 -28 -55 -45 -22 -16 -57 -46 -80 -65 -22 -19 -53 -46
-69 -60 -15 -14 -68 -65 -116 -113 l-88 -89 -74 -3 c-329 -15 -669 -104 -962
-252 -50 -25 -103 -53 -117 -64 -15 -10 -30 -19 -33 -19 -4 0 -42 -23 -84 -52
-208 -139 -427 -343 -584 -543 -26 -33 -53 -66 -59 -73 -22 -26 -136 -202
-160 -247 -18 -34 -33 -48 -59 -57 -65 -21 -204 -91 -289 -146 -215 -140 -410
-348 -542 -578 -80 -140 -193 -402 -191 -444 0 -3 -4 -13 -10 -23 -5 -10 -11
-26 -14 -35 -14 -58 -45 -204 -50 -242 -7 -46 -8 -243 -1 -270 2 -8 7 -33 11
-55 4 -22 16 -62 27 -90 l19 -50 -29 -72 c-30 -73 -75 -241 -87 -323 -24 -173
-17 -387 18 -540 5 -25 12 -54 14 -66 10 -50 69 -216 105 -292 83 -178 242
-355 401 -447 61 -36 141 -75 188 -92 73 -28 93 -35 105 -40 25 -8 234 -53
270 -58 116 -14 207 -19 365 -19 243 0 383 11 650 50 19 2 51 7 70 10 19 3 87
14 150 26 63 11 124 22 135 24 11 2 33 6 49 9 17 3 86 17 155 31 70 14 135 28
146 30 25 6 57 13 90 18 14 3 33 7 43 10 9 3 34 7 54 10 21 3 58 10 83 16 25
6 62 13 83 15 20 3 46 7 57 10 11 2 45 7 75 10 30 4 66 9 80 11 123 17 529 24
655 10 33 -3 83 -8 110 -11 28 -3 59 -7 70 -9 11 -2 61 -11 110 -21 171 -31
372 -96 531 -171 69 -32 80 -40 76 -58 -3 -12 -9 -27 -15 -33 -5 -7 -7 -13 -4
-13 3 0 -6 -33 -19 -72 -14 -40 -27 -77 -28 -83 -3 -15 -114 -360 -136 -425
-10 -30 -46 -143 -80 -250 -34 -107 -65 -204 -70 -215 -8 -20 -101 -311 -106
-330 -1 -5 -9 -30 -17 -55 -8 -25 -43 -133 -77 -240 -34 -107 -64 -202 -67
-210 -3 -8 -7 -19 -8 -25 -1 -5 -10 -32 -20 -60 -9 -27 -18 -54 -19 -60 -1 -5
-30 -97 -65 -202 -34 -106 -62 -195 -62 -198 0 -2 -9 -27 -19 -55 l-18 -50 21
5 c12 2 49 7 82 10 108 10 149 14 190 19 22 3 67 8 100 11 33 4 74 9 90 11 17
3 53 7 80 9 28 2 73 6 100 9 28 4 73 9 100 12 28 3 66 7 85 9 19 2 60 7 90 10
30 3 71 7 90 10 19 3 60 7 90 10 30 3 73 8 95 10 58 7 122 14 185 20 30 3 71
7 90 10 19 2 60 7 90 10 30 4 66 8 80 10 14 2 55 6 91 10 36 3 76 8 90 10 13
2 53 6 89 10 36 3 76 7 90 10 14 2 57 7 95 10 91 7 156 15 177 21 40 12 46 27
-205 -496 -33 -69 -79 -165 -102 -215 -41 -86 -116 -243 -213 -445 -25 -52
-46 -97 -47 -100 -1 -3 -20 -45 -44 -95 -24 -49 -67 -139 -96 -200 -29 -60
-98 -206 -155 -324 -56 -118 -105 -221 -110 -230 -5 -9 -30 -61 -56 -116 -26
-55 -75 -158 -109 -230 -34 -71 -79 -166 -100 -210 -21 -44 -61 -129 -90 -190
-29 -60 -78 -162 -108 -225 -94 -198 -137 -290 -219 -460 -44 -91 -100 -210
-126 -265 -25 -55 -59 -124 -74 -152 -15 -29 -24 -53 -20 -53 4 1 32 33 62 72
30 39 63 81 73 92 9 12 67 84 128 161 116 147 154 195 179 224 8 10 26 33 40
51 14 18 35 45 47 59 12 14 61 76 108 136 48 61 102 128 120 150 18 22 56 69
84 105 28 36 57 72 64 80 7 8 63 80 126 160 63 80 120 150 126 155 6 6 16 17
21 26 5 9 26 36 46 60 20 24 92 114 160 199 67 85 126 160 131 165 4 6 112
141 238 300 127 160 238 299 247 310 9 11 61 76 116 145 54 69 113 143 131
165 18 22 108 135 200 250 92 116 176 222 188 237 46 57 72 89 218 273 83 105
164 206 180 225 34 42 280 351 291 365 4 6 26 33 48 60 22 28 44 55 48 60 24
31 207 261 212 265 3 3 17 21 31 40 15 19 35 45 45 57 11 12 30 36 44 54 14
18 39 49 55 70 17 20 57 71 90 114 33 43 65 83 70 89 9 10 81 99 97 121 4 6
31 39 60 74 l52 63 -95 -7 c-52 -4 -112 -9 -134 -11 -22 -2 -71 -6 -110 -9
-68 -6 -96 -8 -255 -20 -41 -4 -95 -8 -120 -10 -25 -3 -79 -7 -120 -10 -41 -3
-97 -7 -125 -10 -27 -2 -84 -7 -125 -10 -41 -4 -95 -8 -120 -11 -25 -2 -81 -6
-125 -9 -44 -3 -100 -7 -125 -10 -64 -6 -164 -15 -240 -20 -36 -3 -90 -7 -120
-10 -30 -2 -86 -7 -125 -10 -38 -3 -92 -7 -120 -10 -27 -3 -86 -7 -130 -10
-44 -3 -96 -7 -115 -10 -19 -2 -73 -6 -120 -10 -47 -3 -98 -7 -113 -10 -25 -3
-27 -1 -21 18 6 19 29 75 64 152 72 161 107 245 102 249 -3 3 0 6 6 6 7 0 12
6 12 14 0 7 14 44 31 82 43 96 65 146 72 165 5 15 12 15 76 -6 39 -13 95 -28
123 -34 29 -6 64 -14 78 -17 14 -3 36 -7 50 -10 14 -2 36 -7 50 -9 14 -3 39
-8 55 -10 29 -5 51 -9 105 -20 14 -3 41 -7 60 -10 19 -2 46 -7 60 -10 14 -3
40 -7 58 -10 79 -12 109 -16 142 -20 19 -2 35 -4 35 -5 0 -1 15 -3 115 -16 30
-3 66 -8 80 -10 23 -3 109 -11 205 -20 59 -5 304 -16 350 -16 54 0 322 12 365
16 19 2 67 7 105 10 39 4 84 9 100 11 17 2 57 6 90 10 33 3 67 8 75 10 8 2 40
7 70 10 30 3 62 8 70 10 8 2 31 7 50 10 130 21 172 29 320 60 14 2 61 12 105
21 44 9 143 32 220 51 77 19 147 36 155 38 8 2 40 10 71 19 31 9 65 18 75 20
11 3 30 9 44 14 14 5 28 10 33 11 4 0 31 7 61 16 29 9 62 17 72 19 34 7 489
158 499 166 6 5 26 11 45 14 33 5 111 20 155 30 103 22 362 100 420 126 11 5
61 25 110 46 263 110 481 272 592 440 99 151 196 387 229 559 2 11 6 31 9 45
5 26 14 94 21 165 15 157 -3 397 -41 544 -8 30 -11 59 -8 65 9 15 95 128 111
144 6 7 12 19 12 27 0 7 4 15 8 17 11 4 63 114 97 203 28 76 31 86 45 158 5
27 12 52 14 55 9 14 20 172 20 277 0 115 -9 210 -29 320 -23 129 -92 355 -141
462 -13 28 -24 54 -24 58 0 17 -143 289 -166 316 -8 8 -14 20 -14 25 0 13
-130 194 -185 259 -110 130 -241 242 -371 317 -64 37 -199 93 -249 104 -85 17
-122 21 -191 19 -67 -2 -76 0 -86 19 -6 12 -10 21 -8 21 2 0 -9 38 -24 84 -75
230 -238 453 -446 610 -41 31 -77 58 -80 62 -24 27 -261 153 -413 220 -162 71
-438 158 -562 175 -16 3 -52 9 -80 14 -97 18 -323 27 -382 16 -69 -14 -116
-18 -122 -9 -3 5 -40 36 -81 68 -41 33 -77 62 -80 65 -10 11 -236 158 -300
195 -164 95 -435 209 -523 221 -16 2 -33 6 -38 9 -27 18 -194 33 -351 33 -98
0 -179 -2 -180 -3z m412 -267 c8 -3 29 -8 45 -12 149 -35 320 -101 448 -173
33 -18 63 -33 68 -33 5 0 9 -4 9 -10 0 -5 5 -10 11 -10 13 0 247 -155 294
-194 32 -27 35 -30 79 -64 26 -20 27 -28 1 -22 -14 3 -182 -1 -235 -5 -67 -5
-138 -14 -202 -26 -32 -5 -70 -12 -85 -15 -115 -21 -320 -99 -329 -126 -3 -11
-3 -22 0 -26 4 -3 48 4 99 16 121 29 162 35 337 48 108 8 480 12 480 5 0 -3
24 -6 53 -7 69 -1 156 -10 242 -24 39 -6 81 -13 95 -15 32 -5 129 -23 155 -29
11 -2 61 -11 110 -21 50 -9 97 -20 105 -24 27 -13 85 -7 85 9 0 18 -46 41
-150 74 -149 48 -209 65 -300 86 -55 13 -103 26 -107 30 -20 16 256 -6 377
-30 28 -6 59 -12 70 -14 91 -18 326 -95 430 -141 392 -175 617 -364 767 -645
61 -113 120 -315 87 -294 -46 28 -372 45 -474 25 -27 -6 -61 -13 -75 -15 -14
-2 -38 -9 -55 -16 -16 -6 -32 -12 -35 -12 -24 -3 -165 -61 -200 -83 -19 -12
-43 -24 -52 -28 -22 -8 -23 -21 -2 -42 11 -10 25 -14 38 -10 48 14 213 55 241
60 17 3 41 7 55 10 76 14 137 19 245 18 191 -1 244 -9 322 -46 17 -8 38 -6 85
8 35 10 68 21 73 24 38 21 171 20 254 -1 190 -47 416 -209 541 -388 14 -19 28
-37 31 -40 25 -20 144 -222 209 -355 104 -211 168 -403 206 -620 8 -43 12
-348 6 -360 -3 -5 -7 -25 -9 -45 -15 -154 -119 -387 -224 -503 -43 -47 -49
-51 -70 -40 -64 31 -157 44 -335 45 -66 0 -129 -2 -140 -5 -10 -3 -39 -9 -64
-12 -98 -14 -382 -129 -394 -160 -6 -18 8 -36 30 -37 22 -1 45 4 139 30 39 11
86 23 105 26 19 3 46 8 60 11 100 20 358 27 445 12 71 -12 115 -25 129 -36 13
-11 30 -62 41 -123 3 -16 8 -40 11 -55 3 -16 6 -41 8 -58 1 -16 4 -34 7 -40 8
-14 3 -360 -5 -415 -6 -36 -30 -143 -51 -230 -25 -99 -128 -306 -189 -378
-107 -126 -296 -244 -546 -343 -61 -24 -69 -26 -190 -63 -47 -15 -98 -29 -114
-32 -16 -3 -33 -7 -36 -9 -4 -3 -25 -7 -46 -10 -22 -2 -32 -2 -24 2 17 7 148
101 171 123 9 8 44 39 78 69 34 30 69 67 77 82 40 77 -14 79 -98 4 -69 -63
-195 -152 -298 -212 -113 -65 -314 -156 -395 -178 -35 -10 -36 -10 -55 -18
-20 -8 -87 -25 -129 -32 -19 -3 -37 -8 -41 -10 -4 -3 -32 -7 -61 -11 -30 -3
-57 -8 -60 -10 -25 -14 -302 -21 -424 -10 -44 4 -101 9 -127 11 -26 3 -59 7
-75 10 -15 2 -48 7 -73 11 -42 5 -130 19 -190 30 -14 2 -41 7 -60 10 -19 3
-53 10 -75 16 -22 5 -51 12 -65 14 -14 3 -33 7 -42 10 -9 3 -25 7 -35 9 -72
16 -223 64 -265 86 -47 24 -99 -2 -79 -38 9 -18 133 -81 211 -108 3 -1 12 -4
20 -8 54 -21 204 -67 280 -85 42 -10 93 -22 115 -27 6 -2 37 -8 70 -14 33 -6
69 -13 81 -15 12 -2 45 -8 75 -11 30 -4 65 -9 79 -11 51 -8 156 -17 198 -17
61 -1 41 -12 -68 -37 -91 -21 -105 -24 -160 -34 -14 -2 -45 -9 -70 -15 -44
-10 -75 -16 -135 -26 -16 -3 -68 -13 -115 -21 -100 -19 -101 -19 -205 -34 -44
-7 -93 -13 -110 -15 -16 -1 -50 -5 -75 -9 -25 -4 -65 -9 -90 -11 -25 -2 -76
-6 -115 -10 -265 -23 -592 -19 -810 10 -16 2 -57 7 -90 10 -33 3 -71 8 -85 10
-14 2 -47 6 -75 10 -64 8 -113 15 -145 20 -14 2 -45 7 -70 10 -25 4 -56 9 -70
11 -14 3 -50 9 -80 14 -30 6 -65 12 -76 14 -12 2 -37 7 -55 10 -19 3 -45 8
-59 11 -14 3 -47 9 -75 15 -81 15 -91 18 -148 36 l-55 17 21 49 c14 35 24 47
36 44 45 -14 87 -18 211 -21 255 -6 473 39 497 102 10 24 -25 44 -67 38 -169
-25 -410 -31 -537 -13 l-71 11 17 41 c10 22 28 62 40 88 11 26 21 49 21 52 0
2 15 37 33 78 19 40 51 114 72 164 38 91 39 92 72 90 18 -1 33 1 33 4 0 3 17
5 38 6 38 1 155 12 227 20 79 10 101 12 155 19 30 3 65 8 76 10 31 5 76 30 97
53 15 17 16 21 2 32 -14 11 -113 14 -205 5 -319 -32 -1268 -32 -1505 0 -75 10
-194 20 -355 30 -116 6 -255 15 -335 20 -137 8 -244 19 -410 42 -22 2 -67 6
-100 6 -47 2 -60 -1 -63 -14 -4 -22 46 -46 138 -65 8 -2 26 -6 40 -9 14 -3 59
-12 100 -19 41 -8 89 -17 105 -21 17 -3 50 -8 75 -10 75 -9 81 -13 75 -47 -3
-17 -10 -38 -14 -47 -5 -9 -9 -19 -10 -24 0 -4 -5 -25 -12 -46 l-12 -39 -76
35 c-153 70 -344 135 -462 158 -12 2 -28 7 -37 9 -10 3 -31 8 -47 10 -17 3
-41 7 -55 10 -72 14 -225 33 -335 42 -61 5 -415 6 -467 1 -52 -5 -48 10 5 18
23 4 49 11 57 15 8 4 29 10 45 13 37 7 232 69 300 95 49 20 70 47 43 57 -8 3
-86 -10 -174 -29 -139 -30 -207 -42 -389 -71 -137 -22 -251 -29 -465 -29 -196
0 -272 4 -438 20 -75 7 -199 33 -238 49 -36 15 -55 5 -47 -26 6 -22 177 -91
287 -115 159 -35 264 -49 408 -55 72 -4 78 -14 13 -23 -22 -3 -123 -23 -225
-45 -101 -21 -188 -37 -192 -35 -5 3 -8 1 -8 -3 0 -5 -8 -9 -17 -9 -19 -1 -63
-8 -103 -18 -14 -3 -38 -8 -55 -11 -16 -3 -70 -12 -120 -20 -104 -18 -114 -20
-215 -34 -114 -16 -149 -20 -220 -27 -36 -3 -78 -7 -95 -9 -40 -5 -390 -6
-440 -1 -41 3 -126 14 -180 22 -39 6 -214 52 -240 63 -291 121 -430 272 -525
566 -31 98 -35 113 -45 167 -27 144 -27 385 -1 513 22 111 26 125 47 184 11
31 22 64 24 75 7 29 11 30 53 13 70 -28 155 -40 310 -42 160 -3 232 6 357 45
94 30 275 118 275 134 0 24 -28 39 -57 31 -16 -5 -32 -9 -38 -10 -5 -2 -39
-11 -75 -20 -67 -17 -79 -20 -140 -31 -19 -4 -44 -8 -55 -10 -85 -17 -270 -23
-364 -13 -91 10 -105 13 -193 45 -10 4 -18 10 -18 14 0 4 -11 18 -25 31 -38
37 -58 111 -59 219 0 87 10 205 19 220 2 4 7 21 10 40 3 18 23 86 45 150 130
388 336 672 630 867 88 59 231 128 298 144 26 7 68 22 93 35 50 25 195 74 237
80 129 18 178 20 361 12 l83 -3 35 40 c68 77 132 244 124 325 -1 8 -1 23 -2
33 0 15 -7 18 -36 15 -36 -3 -37 -4 -40 -48 -3 -47 -23 -132 -32 -140 -3 -3
-15 -21 -25 -40 -10 -19 -31 -48 -45 -63 -28 -30 -26 -30 -151 -12 -67 10
-219 12 -267 4 -72 -12 -104 -19 -141 -29 -24 -6 -30 -5 -25 3 16 27 170 235
198 266 68 78 284 290 335 329 86 67 268 184 345 224 118 60 342 142 450 163
11 3 40 9 65 15 59 13 96 20 145 26 22 2 46 7 54 10 8 2 50 7 95 10 45 3 86 7
93 9 7 2 15 0 17 -4 3 -5 -24 -16 -59 -26 -36 -9 -68 -21 -71 -26 -3 -5 -14
-9 -24 -9 -21 0 -52 -38 -43 -53 6 -11 53 -4 130 17 29 8 79 17 112 21 33 3
69 8 81 10 119 23 602 24 760 1 14 -2 52 -7 85 -11 33 -4 69 -9 80 -11 11 -2
49 -9 85 -15 36 -5 128 -24 205 -40 77 -17 160 -33 183 -36 41 -5 44 -4 40 17
-2 18 -18 28 -80 50 -43 15 -78 25 -78 23 0 -2 -10 1 -21 8 -19 10 -220 72
-274 84 -101 23 -253 52 -335 62 -115 15 -412 8 -512 -13 -13 -2 -43 -7 -68
-10 l-45 -6 95 94 c53 51 125 118 160 148 36 30 67 58 70 61 25 30 296 219
428 300 135 83 460 230 540 245 13 3 42 11 65 19 23 8 53 16 67 19 14 3 45 10
70 16 25 5 65 12 90 15 68 9 74 10 85 17 13 8 478 2 530 -6 22 -4 54 -9 70
-11 17 -2 62 -9 100 -15 39 -7 81 -14 94 -15 32 -5 47 -21 19 -22 -13 0 -36
-3 -53 -7 -16 -4 -43 -9 -60 -11 -16 -3 -41 -8 -55 -11 -14 -3 -36 -8 -50 -11
-14 -2 -32 -7 -40 -10 -8 -3 -19 -7 -25 -9 -60 -14 -191 -69 -199 -82 -10 -16
4 -39 22 -38 9 1 42 10 72 19 31 10 76 19 100 22 25 3 55 7 67 9 99 20 597 36
696 22 15 -3 60 -7 100 -11 40 -4 74 -8 77 -10 3 -1 36 -6 75 -10 38 -4 73 -8
76 -11 3 -2 24 -6 45 -9 21 -2 50 -7 64 -10 14 -3 36 -7 50 -10 48 -9 265 -55
280 -60 21 -6 44 10 37 27 -4 13 -151 72 -192 78 -3 1 -20 7 -40 16 -19 8 -35
12 -35 9 0 -3 -10 0 -22 6 -27 15 -204 59 -336 84 -51 10 -91 19 -90 20 2 1
59 21 128 44 144 47 359 103 372 95 4 -3 8 0 8 6 0 6 4 9 8 6 4 -3 26 -1 48 4
21 5 63 12 93 16 56 6 86 11 86 14 0 1 34 4 75 6 41 3 76 7 78 9 5 5 384 -2
402 -7z m-4283 -5484 c-3 -3 -12 -4 -19 -1 -8 3 -5 6 6 6 11 1 17 -2 13 -5z"/>
<path d="M4690 10803 c-35 -14 -34 -35 3 -113 41 -86 210 -230 271 -230 9 0
51 18 93 40 43 22 82 40 89 40 6 0 24 7 40 14 16 8 43 17 61 20 18 4 44 11 58
16 46 17 116 24 246 24 l126 -1 -17 54 c-9 29 -21 58 -28 65 -25 25 -220 12
-357 -26 -48 -13 -132 -47 -165 -66 -8 -5 -31 -17 -50 -26 -19 -10 -42 -24
-52 -31 -25 -22 -49 -22 -92 -1 -47 24 -159 134 -151 148 3 6 2 10 -3 10 -4 0
-14 16 -22 35 -14 35 -21 39 -50 28z"/>
<path d="M8932 10432 c-32 -5 -36 -21 -16 -78 23 -67 23 -186 0 -246 -18 -45
-20 -47 -73 -58 -102 -22 -300 -101 -346 -140 -6 -6 -30 -24 -52 -40 -53 -40
-145 -132 -145 -145 0 -14 59 -133 60 -120 0 17 129 144 195 193 78 58 211
124 316 158 46 14 92 34 101 43 50 49 63 286 20 382 -23 53 -28 57 -60 51z"/>
<path d="M5537 10424 c-1 -1 -20 -4 -42 -7 -22 -3 -62 -11 -90 -17 -27 -7 -58
-13 -69 -16 -46 -9 -145 -48 -191 -75 -91 -53 -112 -79 -145 -185 -27 -83 -31
-107 -34 -204 -3 -121 21 -210 58 -210 36 0 45 13 40 55 -15 133 -6 232 32
350 20 60 33 74 110 114 132 68 214 85 406 85 l87 0 -6 26 c-3 14 -12 40 -19
57 -13 32 -14 33 -74 30 -34 -1 -62 -3 -63 -3z"/>
<path d="M4496 10364 l-28 -16 48 -49 c27 -28 73 -62 102 -76 29 -14 49 -29
44 -32 -17 -11 -49 -88 -53 -126 0 -2 -4 -17 -8 -32 -5 -16 -5 -38 0 -50 6
-18 13 -20 35 -14 21 5 28 14 31 41 5 51 44 128 96 193 l47 57 -27 1 c-79 2
-146 27 -201 75 -28 24 -52 44 -54 44 -1 -1 -16 -8 -32 -16z"/>
<path d="M2575 10223 c-34 -66 -72 -104 -137 -135 -26 -13 -47 -25 -48 -28 0
-3 26 -18 57 -35 62 -32 141 -104 163 -147 14 -29 34 -35 59 -19 12 8 12 16
-3 53 -18 46 -42 77 -93 119 l-31 26 41 46 c42 48 91 146 79 159 -4 4 -18 9
-32 11 -23 4 -29 -2 -55 -50z"/>
<path d="M9389 10255 c-3 -2 -16 -6 -29 -8 -22 -3 -24 -10 -28 -63 -4 -67 -28
-128 -72 -184 -16 -21 -30 -40 -30 -42 0 -2 19 -5 43 -6 59 -3 146 -22 152
-33 4 -5 13 -9 21 -9 9 0 30 -12 49 -26 28 -21 37 -23 54 -14 12 6 21 17 21
25 0 23 -81 81 -140 101 -30 10 -57 20 -59 21 -2 1 1 15 8 30 17 42 23 72 26
135 2 53 -5 85 -16 73z"/>
<path d="M1868 9995 c-2 -2 -30 -6 -63 -9 -109 -13 -274 -60 -276 -79 -2 -21
3 -102 5 -105 2 -1 39 11 82 27 43 16 99 35 124 41 25 7 54 14 65 17 56 15
233 9 313 -10 22 -6 124 -148 158 -222 17 -38 38 -96 45 -127 13 -56 15 -58
46 -58 33 0 33 0 36 53 3 62 -53 210 -115 301 -60 88 -120 140 -180 156 -44
11 -231 23 -240 15z"/>
<path d="M8980 9770 c-129 -27 -310 -128 -454 -253 -32 -28 -31 -48 4 -105
l20 -32 57 57 c129 129 267 211 393 233 71 13 84 10 155 -35 22 -14 47 -28 55
-32 43 -20 190 -169 190 -192 0 -18 27 -18 50 1 l24 20 -29 53 c-60 112 -211
236 -338 279 -51 17 -71 18 -127 6z"/>
<path d="M8748 8234 c-5 -5 -27 -11 -50 -13 -4 -1 2 -27 14 -58 19 -54 27
-171 15 -213 -3 -8 -8 -29 -12 -46 -7 -32 -30 -50 -75 -58 -107 -20 -255 -82
-349 -145 -78 -54 -191 -159 -191 -179 0 -8 12 -38 26 -67 l26 -51 82 81 c93
94 141 132 211 169 28 14 57 30 65 35 26 16 82 38 167 66 45 15 88 34 96 43
38 43 57 238 32 333 -14 53 -47 113 -57 103z"/>
<path d="M9144 8042 c-6 -4 -12 -34 -13 -67 -2 -67 -26 -124 -79 -186 l-34
-39 44 -1 c83 -1 169 -26 229 -66 40 -26 65 -25 75 2 4 10 -5 26 -25 44 -37
33 -132 81 -160 81 -20 0 -20 0 1 46 19 43 31 151 20 182 -5 13 -40 16 -58 4z"/>
<path d="M8751 7559 c-39 -10 -101 -33 -139 -51 -62 -31 -180 -104 -192 -119
-3 -3 -12 -10 -21 -15 -9 -5 -38 -28 -63 -52 l-46 -42 25 -50 c14 -28 27 -50
29 -50 1 0 29 25 62 56 138 131 248 197 381 229 l72 18 53 -28 c115 -60 212
-140 269 -223 l30 -42 30 16 c24 12 29 19 24 37 -26 88 -185 241 -305 294 -95
43 -118 45 -209 22z"/>
</g>
</svg>
